<svg width="108" height="67" viewBox="0 0 108 67" fill="none" xmlns="http://www.w3.org/2000/svg">
<path d="M55.6138 46.1833C55.6138 38.0138 51.728 31.9751 43.6999 29.7117C49.5574 26.9222 52.6121 22.696 52.6121 16.1224C52.6121 3.16082 42.9219 0 31.7419 0H0.960388V65.0775H32.6039C44.4692 65.0775 55.6138 59.4057 55.6138 46.1833ZM15.3101 11.1093H28.7756C33.9522 11.1093 38.6117 12.5593 38.6117 18.5449C38.6117 24.0708 34.9867 26.2945 29.8587 26.2945H15.3101V11.1093ZM15.3056 54.0257V36.1041H30.9462C37.2634 36.1041 41.2597 38.73 41.2597 45.3964C41.2597 51.97 36.4897 54.0257 30.65 54.0257H15.3056Z" fill="white"/>
<path d="M84.0523 66.3108C95.3428 66.3108 102.655 61.2403 106.174 50.4625H94.7151C93.4817 54.4854 88.3979 56.6118 84.4546 56.6118C76.8465 56.6118 72.8502 52.1689 72.8502 44.6183H106.947C108.026 29.5083 99.6088 16.6307 84.0479 16.6307C69.6408 16.6307 59.8621 27.4261 59.8621 41.568C59.8621 56.2448 69.128 66.3108 84.0523 66.3108ZM83.6456 26.4094C90.1662 26.4094 93.4464 30.2289 93.9945 36.4754H72.8679C73.2967 30.2819 77.4212 26.4094 83.6456 26.4094Z" fill="white"/>
<path d="M70.2199 3.41724H96.6912V9.82729H70.2199V3.41724Z" fill="white"/>
</svg>
