<svg width="86" height="86" viewBox="0 0 86 86" fill="none" xmlns="http://www.w3.org/2000/svg">
<path d="M80.2346 21.4157C76.3893 14.828 71.1734 9.61208 64.5855 5.76697C57.9965 1.92206 50.8036 0 43.0014 0C35.2 0 28.0049 1.92206 21.4171 5.76697C14.8288 9.61149 9.61286 14.8274 5.76756 21.4157C1.92206 28.0043 0 35.1994 0 43.0002C0 50.8014 1.92265 57.9953 5.76697 64.5843C9.61208 71.172 14.828 76.3879 21.4163 80.2334C28.0049 84.0782 35.1994 86.0004 43.0006 86.0004C50.8018 86.0004 57.997 84.0782 64.5853 80.2334C71.1732 76.3893 76.3889 71.172 80.2338 64.5843C84.0782 57.9959 86 50.801 86 43.0002C86.0002 35.1986 84.0782 28.0034 80.2346 21.4157ZM43.0008 6.27097C52.2573 6.27097 60.3388 9.33164 67.244 15.4528L66.5441 16.432C66.2642 16.8246 65.5643 17.5796 64.4449 18.7C63.3253 19.8194 62.1028 20.8838 60.7779 21.8914C59.4518 22.8994 57.6519 24.0471 55.3741 25.3349C53.0971 26.6228 50.671 27.7525 48.0951 28.7229C43.8029 20.8089 39.2122 13.6796 34.3222 7.33447C37.2715 6.62534 40.1641 6.27097 43.0008 6.27097ZM14.2226 20.211C17.8057 15.6954 22.1723 12.2235 27.3239 9.7976C31.9522 15.9564 36.5057 23.0116 40.9852 30.9619C29.6379 33.948 18.3283 35.4412 7.05561 35.4406C8.25069 29.8046 10.6395 24.7276 14.2226 20.211ZM8.73469 56.2429C7.09208 52.0438 6.27097 47.6292 6.27097 43.0002C6.27097 42.4774 6.29019 42.0854 6.32706 41.8243C19.8399 41.8243 32.4007 40.0892 44.0092 36.6171C45.2039 38.9311 46.1931 41.0028 46.9769 42.8323C46.8257 42.9069 46.5849 42.9904 46.2487 43.0839C45.9116 43.1773 45.6696 43.242 45.519 43.2799L43.4479 44.0076C42.0289 44.5304 40.1713 45.4265 37.8767 46.6949C35.5814 47.9653 33.1459 49.4761 30.5702 51.2309C27.9945 52.9859 25.3349 55.3094 22.5917 58.2032C19.8482 61.0958 17.5433 64.2023 15.6769 67.5242C12.6908 64.2023 10.3769 60.4408 8.73469 56.2429ZM43.0008 79.73C34.2661 79.73 26.4649 76.9302 19.5966 71.3317L20.4365 71.9478C21.7428 69.0729 23.6648 66.3105 26.2037 63.6609C28.7421 61.0112 31.1868 58.8733 33.5383 57.2491C35.8899 55.6265 38.4466 54.0962 41.2091 52.6574C43.9711 51.2213 45.8552 50.3058 46.8639 49.9152C47.8719 49.5234 48.6746 49.2147 49.2718 48.9904L49.3832 48.9341H49.4959C53.1528 58.5269 55.7669 67.8219 57.334 76.8176C52.7054 78.7595 47.9284 79.7294 43.0008 79.73ZM73.9087 62.8488C71.1463 67.1232 67.6929 70.6606 63.5508 73.4591C62.0192 64.8742 59.6316 56.1201 56.3833 47.1997C63.8113 46.0413 71.4444 46.5835 79.2831 48.8223C78.4616 53.8988 76.6697 58.5752 73.9087 62.8488ZM79.1703 42.4964C78.7971 42.4223 78.33 42.3376 77.7703 42.2448C77.2106 42.152 76.5287 42.0395 75.7261 41.9089C74.9246 41.7783 74.0274 41.6573 73.039 41.5451C72.0496 41.4331 70.9953 41.3307 69.8746 41.2374C68.7552 41.1436 67.5605 41.0697 66.2921 41.0132C65.0215 40.9575 63.7344 40.9293 62.4277 40.9293C61.1224 40.9293 59.7495 40.9671 58.3132 41.0413C56.8765 41.1148 55.4865 41.247 54.1429 41.4333C54.0302 41.2464 53.8905 40.9383 53.7227 40.5088C53.555 40.0799 53.4326 39.7528 53.3602 39.5289C52.6501 37.9612 51.8286 36.188 50.8946 34.2102C53.4703 33.1644 55.9252 31.961 58.2594 30.5983C60.5916 29.2355 62.4566 28.0232 63.8572 26.9595C65.2572 25.8946 66.5821 24.7654 67.8323 23.5713C69.0833 22.377 69.894 21.5469 70.2686 21.0801C70.6423 20.6126 70.9967 20.1557 71.3323 19.7084L71.3885 19.6519C76.838 26.296 79.62 33.9476 79.7306 42.6082L79.1703 42.4964Z" fill="white"/>
</svg>
