<?xml version="1.0" encoding="utf-8"?>
<!-- Generator: Adobe Illustrator 25.4.0, SVG Export Plug-In . SVG Version: 6.00 Build 0)  -->
<svg version="1.1" id="Capa_1" xmlns="http://www.w3.org/2000/svg" xmlns:xlink="http://www.w3.org/1999/xlink" x="0px" y="0px"
	 viewBox="0 0 86 86" style="enable-background:new 0 0 86 86;" xml:space="preserve">
<style type="text/css">
	.st0{fill:#FFFFFF;}
</style>
<path class="st0" d="M85.8,25.3c-0.2-4.6-0.9-7.7-2-10.4c-1.1-2.9-2.8-5.5-5-7.6c-2.2-2.2-4.8-3.9-7.6-5c-2.7-1.1-5.9-1.8-10.4-2
	C56.2,0.1,54.7,0,43,0C31.3,0,29.9,0.1,25.3,0.3c-4.6,0.2-7.7,0.9-10.4,2C12,3.3,9.4,5,7.2,7.2C5,9.4,3.3,12,2.3,14.8
	c-1.1,2.7-1.8,5.9-2,10.4C0.1,29.9,0,31.3,0,43c0,11.7,0.1,13.1,0.3,17.7c0.2,4.6,0.9,7.7,2,10.4c1.1,2.9,2.8,5.5,5,7.6
	c2.2,2.2,4.8,3.9,7.6,5c2.7,1.1,5.9,1.8,10.4,2C29.9,86,31.3,86,43,86c11.7,0,13.1,0,17.7-0.3c4.6-0.2,7.7-0.9,10.4-2
	c5.8-2.2,10.4-6.8,12.6-12.6c1.1-2.7,1.8-5.9,2-10.4c0.2-4.6,0.3-6,0.3-17.7C86,31.3,86,29.9,85.8,25.3z M78,60.4
	c-0.2,4.2-0.9,6.5-1.5,8c-1.4,3.7-4.4,6.7-8.2,8.2c-1.5,0.6-3.8,1.3-8,1.5c-4.5,0.2-5.9,0.3-17.4,0.3s-12.9,0-17.4-0.3
	c-4.2-0.2-6.5-0.9-8-1.5c-1.9-0.7-3.6-1.8-4.9-3.2c-1.4-1.4-2.5-3.1-3.2-4.9c-0.6-1.5-1.3-3.8-1.5-8C7.8,55.9,7.8,54.5,7.8,43
	s0-12.9,0.3-17.4c0.2-4.2,0.9-6.5,1.5-8c0.7-1.9,1.8-3.6,3.2-4.9c1.4-1.4,3.1-2.5,4.9-3.2c1.5-0.6,3.8-1.3,8-1.5
	c4.5-0.2,5.9-0.3,17.4-0.3c11.5,0,12.9,0.1,17.4,0.3c4.2,0.2,6.5,0.9,8,1.5c1.9,0.7,3.6,1.8,4.9,3.2c1.4,1.4,2.5,3.1,3.2,4.9
	c0.6,1.5,1.3,3.8,1.5,8c0.2,4.5,0.3,5.9,0.3,17.4S78.2,55.9,78,60.4z"/>
<path class="st0" d="M43,20.7c-12.3,0-22.3,10-22.3,22.3s10,22.3,22.3,22.3c12.3,0,22.3-10,22.3-22.3S55.3,20.7,43,20.7z M43,57.5
	c-8,0-14.5-6.5-14.5-14.5S35,28.5,43,28.5c8,0,14.5,6.5,14.5,14.5S51,57.5,43,57.5z"/>
<path class="st0" d="M71.3,20c0,2.9-2.4,5.3-5.3,5.3c-2.9,0-5.3-2.4-5.3-5.3c0-2.9,2.4-5.3,5.3-5.3C68.9,14.7,71.3,17.1,71.3,20z"/>
</svg>
