<svg width="91" height="88" viewBox="0 0 91 88" fill="none" xmlns="http://www.w3.org/2000/svg">
<path d="M11.1004 0.629761C4.38843 0.629761 0 4.9805 0 10.6989C0 16.2911 4.2577 20.7659 10.8429 20.7659H10.9702C17.8135 20.7659 22.0723 16.2911 22.0723 10.6989C21.9444 4.9805 17.8135 0.629761 11.1004 0.629761Z" fill="white"/>
<path d="M1.16168 28.8978H20.9106V87.3702H1.16168V28.8978Z" fill="white"/>
<path d="M68.509 27.3489C57.9699 27.3489 50.9028 37.2302 50.9028 37.2302V28.7253H31.366V87.3702H50.9017V54.6206C50.9017 52.8674 51.0291 51.1169 51.5453 49.8632C52.9576 46.3622 56.1715 42.7353 61.5687 42.7353C68.638 42.7353 71.4654 48.1132 71.4654 55.997V87.3702H91V53.7443C91 35.7311 81.3615 27.3489 68.509 27.3489Z" fill="white"/>
</svg>
