<svg width="315" height="31" viewBox="0 0 315 31" fill="none" xmlns="http://www.w3.org/2000/svg">
<path d="M5.6 30H0.4V0.4L5.6 30ZM34 30H28.8H34ZM28.8 22.84V0.4H34V30H28.8L5.6 7.52V30H0.4V0.4H5.6L28.8 22.84ZM43.1984 0.4H38.1984V4.64H43.1984V0.4ZM43.1984 30H38.1984V5.8H43.1984V30ZM46.1922 19.12C46.1922 16.88 46.8055 14.8667 48.0322 13.08C49.2855 11.2667 50.9922 9.85333 53.1522 8.84C55.3389 7.82667 57.7655 7.32 60.4322 7.32C64.2722 7.32 67.2455 8.12 69.3522 9.72C71.4589 11.32 73.0189 13.56 74.0322 16.44H68.9922C68.7522 15.48 68.2455 14.5733 67.4722 13.72C66.6989 12.8667 65.7122 12.1867 64.5122 11.68C63.3122 11.1733 61.9922 10.92 60.5522 10.92C58.5789 10.92 56.8989 11.28 55.5122 12C54.1255 12.72 53.0722 13.7067 52.3522 14.96C51.6589 16.1867 51.3122 17.5733 51.3122 19.12C51.3122 20.4533 51.6455 21.76 52.3122 23.04C52.9789 24.32 54.0055 25.3733 55.3922 26.2C56.7789 27 58.4989 27.3733 60.5522 27.32C62.0189 27.32 63.3522 27.0667 64.5522 26.56C65.7522 26.0267 66.7255 25.3467 67.4722 24.52C68.2455 23.6667 68.7389 22.7733 68.9522 21.84H73.9922C73.8055 23.3333 73.0455 24.7867 71.7122 26.2C70.4055 27.5867 68.7389 28.72 66.7122 29.6C64.7122 30.48 62.6189 30.92 60.4322 30.92C57.8989 30.92 55.5389 30.4133 53.3522 29.4C51.1655 28.36 49.4189 26.9333 48.1122 25.12C46.8322 23.3067 46.1922 21.3067 46.1922 19.12ZM90.7066 7.28C93.3199 7.28 95.6666 7.78667 97.7466 8.8C99.8532 9.81333 101.493 11.2267 102.667 13.04C103.867 14.8267 104.467 16.84 104.467 19.08C104.467 21.2933 103.867 23.3067 102.667 25.12C101.493 26.9067 99.8532 28.3067 97.7466 29.32C95.6666 30.3333 93.3199 30.84 90.7066 30.84C88.1999 30.84 85.8399 30.3333 83.6266 29.32C81.4399 28.28 79.6932 26.8667 78.3866 25.08C77.0799 23.2667 76.4266 21.2667 76.4266 19.08C76.4266 16.8667 77.0799 14.8667 78.3866 13.08C79.6932 11.2667 81.4399 9.85333 83.6266 8.84C85.8132 7.8 88.1732 7.28 90.7066 7.28ZM90.7466 27.24C93.1999 27.24 95.2666 26.5867 96.9466 25.28C98.6266 23.9467 99.4666 21.88 99.4666 19.08C99.4666 16.28 98.6266 14.2133 96.9466 12.88C95.2666 11.5467 93.1999 10.88 90.7466 10.88C89.1999 10.88 87.7199 11.16 86.3066 11.72C84.8932 12.28 83.7332 13.1733 82.8266 14.4C81.9466 15.6267 81.5066 17.1867 81.5066 19.08C81.5066 20.9733 81.9466 22.5333 82.8266 23.76C83.7332 24.96 84.8799 25.84 86.2666 26.4C87.6799 26.96 89.1732 27.24 90.7466 27.24ZM112.456 30H107.456V0.4H112.456V30ZM130.275 7.24C133.635 7.24 136.648 7.88 139.315 9.16C141.982 10.44 143.315 12.6933 143.315 15.92V30H138.875L138.315 25.8C137.942 26.5733 137.155 27.32 135.955 28.04C134.782 28.7333 133.355 29.2933 131.675 29.72C130.022 30.1467 128.315 30.36 126.555 30.36C124.502 30.36 122.275 29.9333 119.875 29.08C117.475 28.2267 116.275 26.36 116.275 23.48C116.275 21.5867 116.795 20.1467 117.835 19.16C118.875 18.1467 120.008 17.4933 121.235 17.2C122.462 16.88 123.555 16.72 124.515 16.72C129.128 16.72 132.315 16.6933 134.075 16.64C135.862 16.56 137.022 16.4133 137.555 16.2C138.088 15.96 138.368 15.5467 138.395 14.96V14.6C138.368 13.9333 137.968 13.32 137.195 12.76C136.448 12.1733 135.448 11.7067 134.195 11.36C132.942 11.0133 131.608 10.84 130.195 10.84C127.795 10.7867 125.755 11.12 124.075 11.84C122.395 12.56 121.555 13.72 121.555 15.32H116.515C116.515 13.2667 117.248 11.64 118.715 10.44C120.182 9.24 121.955 8.41333 124.035 7.96C126.115 7.48 128.195 7.24 130.275 7.24ZM128.475 25.96C132.208 25.96 134.782 25.2 136.195 23.68C137.635 22.16 138.355 20.44 138.355 18.52C137.048 19.5067 134.382 20 130.355 20C128.142 20 126.422 20.0667 125.195 20.2C123.995 20.3333 123.102 20.6 122.515 21C121.928 21.3733 121.608 21.9333 121.555 22.68C121.635 23.6933 122.182 24.4933 123.195 25.08C124.235 25.6667 125.995 25.96 128.475 25.96ZM126.315 6.12L129.115 0.799999H135.675L130.875 6.12H126.315ZM161.709 17.44C163.656 17.44 165.336 17.5733 166.749 17.84C168.163 18.1067 169.336 18.6933 170.269 19.6C171.229 20.48 171.709 21.7867 171.709 23.52C171.709 25.7067 171.016 27.3467 169.629 28.44C168.243 29.5333 166.656 30.2133 164.869 30.48C163.109 30.7733 161.149 30.92 158.989 30.92C155.683 30.92 152.643 30.3733 149.869 29.28C147.096 28.16 145.709 26.0267 145.709 22.88L150.709 22.96C150.709 24.4267 151.549 25.5067 153.229 26.2C154.936 26.8667 156.856 27.2 158.989 27.2C161.949 27.2 164.016 26.9333 165.189 26.4C166.363 25.8667 166.949 25.0267 166.949 23.88C166.949 22.7067 166.323 21.9467 165.069 21.6C163.816 21.2267 162.256 21.04 160.389 21.04H158.629C155.109 21.0133 152.069 20.4933 149.509 19.48C146.976 18.4667 145.709 16.6667 145.709 14.08C145.709 11.3067 147.029 9.49333 149.669 8.64C152.309 7.76 155.363 7.32 158.829 7.32C162.136 7.32 165.109 7.86667 167.749 8.96C170.389 10.0533 171.709 12.1733 171.709 15.32L166.709 15.24C166.709 13.5067 165.789 12.36 163.949 11.8C162.136 11.2133 160.416 10.92 158.789 10.92C156.469 10.92 154.536 11.12 152.989 11.52C151.469 11.92 150.709 12.76 150.709 14.04C150.709 15.1867 151.349 16.0533 152.629 16.64C153.936 17.2 155.963 17.48 158.709 17.48L161.709 17.44ZM208.402 15.24C208.402 18.04 207.655 20.56 206.162 22.8C204.695 25.04 202.602 26.8 199.882 28.08C197.162 29.36 194.002 30 190.402 30V30.04H182.442V30H174.562V0.4H190.362C193.962 0.4 197.122 1.04 199.842 2.32C202.589 3.6 204.695 5.36 206.162 7.6C207.655 9.84 208.402 12.3867 208.402 15.24ZM190.602 22.08C192.922 22.08 194.842 21.52 196.362 20.4C197.909 19.2533 198.682 17.5333 198.682 15.24C198.682 13.96 198.309 12.8 197.562 11.76C196.815 10.6933 195.815 9.86667 194.562 9.28C193.335 8.66667 192.015 8.36 190.602 8.36H184.442V22.08H190.602ZM240.37 20H219.05C219.237 21.68 219.863 23.0667 220.93 24.16C222.023 25.2267 223.503 25.76 225.37 25.76C226.89 25.76 228.237 25.4 229.41 24.68C230.61 23.9333 231.21 22.8 231.21 21.28H240.37C240.37 24.3733 239.037 26.7333 236.37 28.36C233.73 29.9867 230.05 30.8 225.33 30.8C222.423 30.8 219.783 30.3067 217.41 29.32C215.037 28.3333 213.157 26.9467 211.77 25.16C210.383 23.3467 209.69 21.28 209.69 18.96C209.69 16.6133 210.37 14.5467 211.73 12.76C213.117 10.9467 214.997 9.56 217.37 8.6C219.77 7.61333 222.423 7.12 225.33 7.12C228.317 7.12 230.93 7.6 233.17 8.56C235.437 9.52 237.197 10.88 238.45 12.64C239.703 14.3733 240.343 16.4133 240.37 18.76V18.96H240.45H240.37V20ZM225.33 12C223.57 12 222.223 12.3733 221.29 13.12C220.357 13.8667 219.717 14.9067 219.37 16.24H230.97C230.677 14.9067 230.09 13.8667 229.21 13.12C228.33 12.3733 227.037 12 225.33 12ZM251.131 30H241.931V0.4H251.131V30ZM268.576 7.28C271.456 7.28 274.056 7.78667 276.376 8.8C278.696 9.81333 280.509 11.2267 281.816 13.04C283.123 14.8267 283.776 16.84 283.776 19.08C283.776 21.2933 283.109 23.3067 281.776 25.12C280.469 26.9067 278.656 28.3067 276.336 29.32C274.043 30.3333 271.456 30.84 268.576 30.84C265.803 30.84 263.203 30.3333 260.776 29.32C258.349 28.28 256.403 26.8667 254.936 25.08C253.496 23.2667 252.776 21.2667 252.776 19.08C252.776 16.8667 253.496 14.8667 254.936 13.08C256.403 11.2667 258.336 9.85333 260.736 8.84C263.163 7.8 265.776 7.28 268.576 7.28ZM268.576 25.12C269.643 25.12 270.629 24.8933 271.536 24.44C272.469 23.9867 273.216 23.3067 273.776 22.4C274.336 21.4667 274.616 20.36 274.616 19.08C274.616 17.8 274.336 16.7067 273.776 15.8C273.216 14.8667 272.469 14.1733 271.536 13.72C270.629 13.2667 269.643 13.04 268.576 13.04C267.536 13.04 266.509 13.28 265.496 13.76C264.509 14.2133 263.696 14.8933 263.056 15.8C262.416 16.7067 262.096 17.8 262.096 19.08C262.096 20.36 262.416 21.4533 263.056 22.36C263.696 23.2667 264.509 23.96 265.496 24.44C266.509 24.8933 267.536 25.12 268.576 25.12ZM299.611 17.04C300.384 17.04 300.971 17.0267 301.371 17L303.651 16.96C306.798 16.96 309.344 17.3733 311.291 18.2C313.264 19 314.251 20.6133 314.251 23.04C314.251 26.1867 312.784 28.2933 309.851 29.36C306.944 30.4 303.611 30.92 299.851 30.92C296.118 30.92 292.691 30.3733 289.571 29.28C286.478 28.16 284.931 26.0267 284.931 22.88H294.211C294.211 24.1333 294.758 24.9733 295.851 25.4C296.944 25.8 298.278 26 299.851 26C301.638 26 302.958 25.7867 303.811 25.36C304.691 24.9067 305.131 24.1867 305.131 23.2C305.131 22.32 304.624 21.7733 303.611 21.56C302.598 21.32 301.318 21.2 299.771 21.2H298.371C295.944 21.2 293.784 21.08 291.891 20.84C290.024 20.5733 288.398 19.96 287.011 19C285.624 18.04 284.931 16.6 284.931 14.68C284.931 11.64 286.424 9.65333 289.411 8.72C292.424 7.78667 295.891 7.32 299.811 7.32C303.518 7.32 306.851 7.86667 309.811 8.96C312.771 10.0533 314.251 12.1733 314.251 15.32L305.051 15.28C305.051 13.92 304.358 13.08 302.971 12.76C301.584 12.44 300.491 12.28 299.691 12.28C298.464 12.28 297.238 12.4267 296.011 12.72C294.811 12.9867 294.211 13.6 294.211 14.56C294.211 16.16 296.011 16.9867 299.611 17.04Z" fill="white"/>
</svg>
